<?xml version="1.0" encoding="utf-8"?>
<!-- Generator: Adobe Illustrator 18.0.0, SVG Export Plug-In . SVG Version: 6.00 Build 0)  -->
<!DOCTYPE svg PUBLIC "-//W3C//DTD SVG 1.1//EN" "http://www.w3.org/Graphics/SVG/1.1/DTD/svg11.dtd">
<svg version="1.1"
	 id="svg2" xmlns:cc="http://creativecommons.org/ns#" xmlns:rdf="http://www.w3.org/1999/02/22-rdf-syntax-ns#" xmlns:sodipodi="http://sodipodi.sourceforge.net/DTD/sodipodi-0.dtd" xmlns:inkscape="http://www.inkscape.org/namespaces/inkscape" xmlns:svg="http://www.w3.org/2000/svg" xmlns:dc="http://purl.org/dc/elements/1.1/" sodipodi:docname="Nouveau document 1" inkscape:version="0.48.4 r9939"
	 xmlns="http://www.w3.org/2000/svg" xmlns:xlink="http://www.w3.org/1999/xlink" x="0px" y="0px" viewBox="391 428.8 373 57.9"
	 enable-background="new 391 428.8 373 57.9" xml:space="preserve">
<sodipodi:namedview  borderopacity="1.0" id="base" pagecolor="#ffffff" inkscape:cy="536.14965" showgrid="false" inkscape:cx="293.39682" bordercolor="#666666" inkscape:zoom="0.7" inkscape:window-width="1920" inkscape:current-layer="layer1" inkscape:pageshadow="2" inkscape:pageopacity="0.0" inkscape:window-y="21" inkscape:window-maximized="1" inkscape:document-units="px" inkscape:window-x="0" inkscape:window-height="1032">
	</sodipodi:namedview>
<defs>
	
	
		<inkscape:perspective  id="perspective3005" inkscape:vp_y="0 : 1000 : 0" inkscape:vp_z="744.09448 : 526.18109 : 1" sodipodi:type="inkscape:persp3d" inkscape:vp_x="0 : 526.18109 : 1" inkscape:persp3d-origin="372.04724 : 350.78739 : 1">
		</inkscape:perspective>
</defs>
<g id="layer1" inkscape:label="Calque 1" inkscape:groupmode="layer">
	<g>
		<g enable-background="new    ">
			<g>
				<path fill="#008500" d="M398.1,477.9l2.5-13.8h-4.8v-4.8h5.7l2.1-11.8h-7.8v-4.8h8.7l2.5-13.9h4.3l-2.5,13.9h8.9l2.5-13.9h4.3
					l-2.5,13.9h4.9v4.8h-5.7l-2.1,11.8h7.9v4.8h-8.8l-2.5,13.8h-4.3l2.5-13.8H405l-2.5,13.8H398.1z M405.8,459.3h8.9l2.1-11.8h-8.9
					L405.8,459.3z"/>
			</g>
		</g>
		<g enable-background="new    ">
			<g>
				<path fill="#F6BB00" d="M431.8,429.7h17l6.6,28.8l6.5-28.8h17v47.3h-10.6V441l-8.1,36.1h-9.6l-8.1-36.1v36.1h-10.6V429.7
					L431.8,429.7z"/>
			</g>
			<g>
				<path fill="#F6BB00" d="M496.8,453.9l-11.1-1.4c0.5-2.2,1-3.9,1.8-5.2c0.8-1.3,1.9-2.4,3.4-3.3c1.1-0.6,2.6-1.2,4.4-1.6
					c1.8-0.4,3.8-0.5,6-0.5c3.5,0,6.3,0.2,8.4,0.6s3.8,1.4,5.3,2.7c1,1,1.7,2.4,2.4,4.1s0.8,3.5,0.8,5.1v15.2c0,1.6,0.1,2.9,0.3,3.8
					c0.2,0.9,0.5,2.1,1.2,3.5h-10.9c-0.5-0.9-0.7-1.6-0.8-2c-0.1-0.5-0.3-1.2-0.4-2.2c-1.6,1.6-3,2.8-4.6,3.6
					c-2,0.9-4.5,1.5-7.1,1.5c-3.6,0-6.4-0.9-8.2-2.8c-1.9-1.9-2.8-4.2-2.8-7c0-2.6,0.6-4.7,2-6.4c1.4-1.6,3.8-2.9,7.5-3.7
					c4.4-1,7.2-1.6,8.5-2.1c1.3-0.4,2.6-0.9,4.1-1.6c0-1.6-0.3-2.7-0.9-3.4c-0.5-0.6-1.6-1-3.1-1c-1.9,0-3.3,0.4-4.3,1
					C497.9,451.5,497.3,452.5,496.8,453.9z M506.9,460.9c-1.6,0.6-3.3,1.2-5,1.7c-2.4,0.7-3.8,1.4-4.5,2.1c-0.6,0.7-1,1.6-1,2.5
					c0,1,0.3,1.9,0.9,2.6c0.6,0.6,1.6,1,2.8,1c1.3,0,2.5-0.4,3.6-1.1c1.1-0.7,1.9-1.6,2.4-2.6c0.5-1,0.7-2.4,0.7-4V460.9z"/>
			</g>
			<g>
				<path fill="#F6BB00" d="M525.6,429.7h11.7v47.3h-11.7V429.7z"/>
			</g>
			<g>
				<path fill="#F6BB00" d="M545.1,429.7h11.6v8.9h-11.6V429.7z M545.1,442.8h11.6v34.3h-11.6V442.8z"/>
			</g>
		</g>
		<g enable-background="new    ">
			<g>
				<path fill="#F60000" d="M574.6,477.1l6.6-35.8c-2.8,2.6-6.8,4.6-12,6.1l1-5.3c2.6-1.2,5.1-2.6,7.6-4.6c2.5-1.9,4.4-3.5,5.7-4.9
					c0.7-0.8,1.5-1.9,2.2-3.1h3l-8.8,47.5H574.6z"/>
			</g>
			<g>
				<path fill="#F60000" d="M597.2,461.6c0-4,0.5-8.1,1.6-12.2c1-4.1,2.2-7.5,3.6-9.9c1.3-2.5,2.6-4.4,4-5.8
					c1.4-1.4,2.7-2.5,4.1-3.1c1.4-0.6,2.8-1,4.5-1c3.2,0,5.8,1.4,8,4s3.2,6.6,3.2,11.7c0,5.2-0.7,10.4-2.2,15.5
					c-1.7,6.1-4.2,10.6-7.3,13.7c-2.4,2.3-5.1,3.5-8.2,3.5s-5.7-1.4-7.9-4.2C598.3,471,597.2,466.9,597.2,461.6z M602.2,463
					c0,2.9,0.5,5.2,1.3,6.8c1.2,2.3,2.9,3.4,5.2,3.4c2,0,3.8-1,5.5-3.1c2.4-2.9,4.1-7.1,5.3-12.7c1.2-5.6,1.8-10.1,1.8-13.7
					c0-3.4-0.5-5.8-1.7-7.4c-1.2-1.6-2.6-2.3-4.6-2.3c-1.4,0-2.6,0.4-3.8,1.2c-1.2,0.8-2.3,2.2-3.4,4.1c-1.6,2.7-2.9,6.8-4,12.3
					C602.6,456.5,602.2,460.2,602.2,463z"/>
			</g>
			<g>
				<path fill="#F60000" d="M629.6,461.6c0-4,0.5-8.1,1.6-12.2c1-4.1,2.2-7.5,3.6-9.9c1.3-2.5,2.6-4.4,4-5.8
					c1.4-1.4,2.7-2.5,4.1-3.1c1.4-0.6,2.8-1,4.5-1c3.2,0,5.8,1.4,8,4s3.2,6.6,3.2,11.7c0,5.2-0.7,10.4-2.2,15.5
					c-1.7,6.1-4.2,10.6-7.3,13.7c-2.4,2.3-5.1,3.5-8.2,3.5s-5.7-1.4-7.9-4.2C630.7,471,629.6,466.9,629.6,461.6z M634.6,463
					c0,2.9,0.5,5.2,1.3,6.8c1.2,2.3,2.9,3.4,5.2,3.4c2,0,3.8-1,5.5-3.1c2.4-2.9,4.1-7.1,5.3-12.7c1.2-5.6,1.8-10.1,1.8-13.7
					c0-3.4-0.5-5.8-1.7-7.4c-1.2-1.6-2.6-2.3-4.6-2.3c-1.4,0-2.6,0.4-3.8,1.2c-1.2,0.8-2.3,2.2-3.4,4.1c-1.6,2.7-2.9,6.8-4,12.3
					C635.1,456.5,634.6,460.2,634.6,463z"/>
			</g>
		</g>
		<g enable-background="new    ">
			<g>
				<path fill="#F60000" d="M659.8,477.1l6.1-33.4h4.8l3,21.6c0.4,2.8,0.6,5.6,0.7,8.2c0.8-2.3,2.2-5.3,4.1-9.1l10.3-20.7h4.9
					l-6.1,33.4h-3.9l3.1-16.2c0.7-3.7,1.7-7.9,3-12.6c-0.8,2.2-1.9,4.5-3.1,7l-10.9,21.8H672l-2.9-21.3c-0.3-1.9-0.5-4.2-0.5-6.8
					c-0.4,2.9-0.6,5.3-1,6.9l-3.9,21.3H659.8z"/>
			</g>
			<g>
				<path fill="#F60000" d="M709.3,468.9l3.6,0.4c-0.5,2-1.6,3.8-3.5,5.7c-1.8,1.8-4,2.6-6.6,2.6c-1.6,0-3-0.5-4.4-1.3
					c-1.3-0.8-2.3-2-3-3.6c-0.7-1.6-1-3.4-1-5.4c0-2.6,0.5-5.2,1.6-7.7c1.1-2.5,2.5-4.3,4.2-5.6s3.6-1.8,5.6-1.8
					c2.6,0,4.6,0.9,6.1,2.6c1.6,1.8,2.3,4.2,2.3,7.3c0,1.2-0.1,2.4-0.3,3.6h-15.7c-0.1,0.5-0.1,0.9-0.1,1.3c0,2.3,0.5,4,1.4,5.2
					s2,1.8,3.4,1.8c1.3,0,2.5-0.5,3.6-1.4C707.7,472,708.6,470.6,709.3,468.9z M698.7,463h12c0-0.5,0-0.7,0-0.9
					c0-2.1-0.5-3.6-1.4-4.7c-0.9-1.1-2.1-1.6-3.6-1.6c-1.6,0-3,0.6-4.3,1.8C700.3,458.7,699.3,460.5,698.7,463z M703.7,450l3.7-6.3
					h4.6l-5.4,6.3H703.7z"/>
			</g>
			<g>
				<path fill="#F60000" d="M716.3,479.3l3.6,0.4c0,0.9,0.1,1.6,0.3,2.1c0.2,0.5,0.5,0.8,1.1,1.1c0.6,0.4,1.6,0.5,2.6,0.5
					c2.2,0,3.7-0.6,4.7-1.9c0.6-0.8,1.2-2.7,1.7-5.7l0.4-1.9c-1.9,2.2-3.9,3.3-6,3.3c-2.2,0-3.9-0.9-5.4-2.7
					c-1.5-1.8-2.2-4.4-2.2-7.7c0-2.7,0.5-5.2,1.7-7.5c1.2-2.3,2.5-4,4.1-5.2c1.6-1.2,3.2-1.7,4.9-1.7c2.8,0,4.9,1.5,6.5,4.5l0.7-3.9
					h3.4l-4.3,23.4c-0.5,2.6-1.1,4.6-1.8,6c-0.7,1.5-1.8,2.6-3.2,3.4s-2.9,1.2-4.7,1.2c-1.7,0-3.2-0.3-4.5-0.7
					c-1.3-0.5-2.2-1.3-2.7-2.2c-0.6-1-0.9-2.1-0.9-3.3C716.2,480.1,716.2,479.7,716.3,479.3z M720.9,466.4c0,1.6,0.2,2.9,0.5,3.7
					c0.4,1.2,1,2.1,1.7,2.6c0.7,0.6,1.6,0.9,2.5,0.9c1.2,0,2.4-0.5,3.6-1.5c1.2-1,2.1-2.4,2.8-4.4c0.7-2,1.1-3.9,1.1-5.7
					c0-2-0.5-3.6-1.5-4.7c-1-1.2-2.2-1.7-3.6-1.7c-0.9,0-1.7,0.3-2.6,0.8c-0.8,0.5-1.6,1.4-2.3,2.5c-0.7,1.1-1.3,2.4-1.6,3.9
					C721,464.5,720.9,465.6,720.9,466.4z"/>
			</g>
			<g>
				<path fill="#F60000" d="M753.8,474.1c-1.3,1.2-2.5,2.1-3.6,2.7c-1.2,0.5-2.4,0.8-3.7,0.8c-2,0-3.6-0.6-4.7-2
					c-1.2-1.3-1.8-3-1.8-5c0-1.4,0.3-2.6,0.8-3.6c0.5-1,1.3-1.9,2.2-2.5c0.9-0.6,2-1.1,3.3-1.4c0.8-0.2,2.4-0.4,4.7-0.5
					c2.3-0.1,3.9-0.4,4.9-0.8c0.3-1.1,0.5-2.1,0.5-2.8c0-0.9-0.3-1.7-0.9-2.3c-0.8-0.7-2.1-1.1-3.7-1.1c-1.6,0-2.7,0.4-3.7,1.2
					c-1,0.7-1.6,1.8-2.1,3.3l-3.6-0.4c0.7-2.4,1.9-4.2,3.6-5.5c1.6-1.3,3.6-1.9,6.1-1.9c2.6,0,4.7,0.7,6.3,2.1
					c1.2,1.1,1.7,2.5,1.7,4.1c0,1.3-0.2,2.8-0.5,4.5l-1.2,6c-0.4,1.9-0.5,3.5-0.5,4.7c0,0.7,0.2,1.8,0.5,3.3h-3.6
					C754,476.4,753.9,475.4,753.8,474.1z M755.2,464.9c-0.5,0.2-1.1,0.4-1.6,0.5c-0.5,0.1-1.6,0.3-2.9,0.4c-2.1,0.2-3.6,0.5-4.5,0.8
					c-0.9,0.4-1.6,0.8-2,1.6s-0.6,1.5-0.6,2.4c0,1.2,0.4,2.1,1.1,2.8c0.7,0.7,1.7,1.1,3,1.1c1.2,0,2.4-0.4,3.5-1.1
					c1.1-0.7,2-1.7,2.6-3C754.2,469.1,754.8,467.2,755.2,464.9z"/>
			</g>
		</g>
	</g>
</g>
</svg>
